# xmcd
#
# Track frame offsets: 
#        150
#        35904
#        62278
#        78746
#        95148
#        113333
#        140007
#        160864
#        184558
#        204436
#        222583
#        241407
#        260973
#        272768
#        285505
#        303055
#        315648
#
# Disc length: 4430 seconds
#
# Revision: 2
# Processed by: cddbd v1.5.2PL0 Copyright (c) Steve Scherf et al.
# Submitted via: ExactAudioCopy v0.99pb5
#
DISCID=f9114c11
DTITLE=Various Artist - Music From The Wattstax - Disc 1
DYEAR=1972
DGENRE=Blues
TTITLE0=Dale Warren and The Wattstax '72 Orchestra - Salvation Symphony
TTITLE1=Rev. Jesse Jackson - Introduction
TTITLE2=Kim Weston - Lift Every Voice And Sing
TTITLE3=The Staples Singers - Heavy Makes You Happy (Sha-Na-Boom-Boom)
TTITLE4=The Staples Singers - Are You Sure
TTITLE5=The Staples Singers - I Like The Things About Me
TTITLE6=The Staples Singers - Respect Yourself
TTITLE7=The Staples Singers - I'll Take You There
TTITLE8=Deborah Manning - Precious Lord, Take My Hand
TTITLE9=Louis McCord - Better Get A Move On
TTITLE10=Lee Sain - Them Hot Pants
TTITLE11=Little Sonny - Wade In The Water
TTITLE12=William Bell - I Forgot To Be Your Lover
TTITLE13=The Tempress - Explain It To Her Mama
TTITLE14=Frederick Knight - I've Been Lonely (For So Long)
TTITLE15=The Newcomers - Pin The Tail On The Donkey
TTITLE16=Eddie Floyd - Knock On Wood
EXTD=
EXTT0=
EXTT1=
EXTT2=
EXTT3=
EXTT4=
EXTT5=
EXTT6=
EXTT7=
EXTT8=
EXTT9=
EXTT10=
EXTT11=
EXTT12=
EXTT13=
EXTT14=
EXTT15=
EXTT16=
PLAYORDER=
